<svg width="20" height="20" viewBox="0 0 20 20" fill="none" xmlns="http://www.w3.org/2000/svg">
<g clip-path="url(#clip0_401_15)">
<g filter="url(#filter0_d_401_15)">
<path d="M2.6056 3.50594C2.84532 4.00545 7.04048 11.5762 7.11539 11.6387C7.17532 11.7011 7.93944 10.3118 7.93944 10.1401C7.93944 9.98403 4.43349 3.61521 4.1638 3.27179C4.0739 3.16252 3.66937 3.08447 3.20491 3.08447H2.38086L2.6056 3.50594Z" fill="#BE123C"/>
<path d="M5.55718 3.42789C5.73697 3.80252 8.55372 8.90694 8.61365 8.98499C8.67358 9.06304 9.4377 7.58011 9.42271 7.39279C9.42271 7.29913 8.89832 6.3001 8.26905 5.1918L7.11538 3.16252L6.24638 3.11569C5.37738 3.06886 5.37738 3.06886 5.55718 3.42789Z" fill="#BE123C"/>
<path d="M12.0747 5.0357C11.5353 6.01912 11.0858 6.89327 11.0858 6.98693C11.0858 7.0962 11.3705 7.14303 11.8649 7.11181L12.659 7.06498L13.2134 6.06595C13.513 5.5196 13.8426 4.98887 13.9325 4.89521C14.1423 4.67667 15.1611 4.64545 15.1012 4.8796C15.0712 4.97326 14.6817 5.72253 14.2322 6.56546L13.4081 8.07962H10.3666L9.07813 10.4523L7.78962 12.8094L8.9283 14.9011C9.55758 16.0563 10.1119 16.946 10.1569 16.9148C10.1869 16.868 10.966 15.5099 11.8649 13.9021L13.483 10.9674L12.7189 10.9206C12.2844 10.8894 11.8799 10.9362 11.805 11.0143C11.7151 11.1079 11.3405 11.7479 10.936 12.466C10.5464 13.184 10.1719 13.7616 10.1119 13.746C10.052 13.746 9.87221 13.5275 9.72239 13.2777L9.46768 12.8406L10.3217 11.2796L11.1907 9.71865L14.2771 9.56256L15.9102 6.59668C16.8242 4.95765 17.5883 3.53715 17.6333 3.42788C17.6932 3.28739 17.1838 3.24056 15.3858 3.24056H13.0785L12.0747 5.0357Z" fill="#BE123C"/>
</g>
</g>
<defs>
<filter id="filter0_d_401_15" x="-1.61914" y="-0.915527" width="23.2568" height="21.8311" filterUnits="userSpaceOnUse" color-interpolation-filters="sRGB">
<feFlood flood-opacity="0" result="BackgroundImageFix"/>
<feColorMatrix in="SourceAlpha" type="matrix" values="0 0 0 0 0 0 0 0 0 0 0 0 0 0 0 0 0 0 127 0" result="hardAlpha"/>
<feOffset/>
<feGaussianBlur stdDeviation="2"/>
<feComposite in2="hardAlpha" operator="out"/>
<feColorMatrix type="matrix" values="0 0 0 0 0 0 0 0 0 0 0 0 0 0 0 0 0 0 0.25 0"/>
<feBlend mode="normal" in2="BackgroundImageFix" result="effect1_dropShadow_401_15"/>
<feBlend mode="normal" in="SourceGraphic" in2="effect1_dropShadow_401_15" result="shape"/>
</filter>
<clipPath id="clip0_401_15">
<rect width="20" height="20" fill="white"/>
</clipPath>
</defs>
</svg>
